<mxfile host="app.diagrams.net" modified="2023-09-22T15:25:59.499Z" agent="Mozilla/5.0 (Macintosh; Intel Mac OS X 10_15_7) AppleWebKit/537.36 (KHTML, like Gecko) Chrome/116.0.0.0 Safari/537.36" etag="ZhTp-jbd7dcu03pPYywF" version="21.8.0" type="github">
  <diagram name="Page-1" id="XcePtO6I2ya1w3SE6ca6">
    <mxGraphModel dx="1434" dy="910" grid="0" gridSize="10" guides="1" tooltips="1" connect="1" arrows="1" fold="1" page="1" pageScale="1" pageWidth="827" pageHeight="1169" math="0" shadow="0">
      <root>
        <mxCell id="0" />
        <mxCell id="1" parent="0" />
        <mxCell id="RBjfgqF-TOj7ngBc4LGD-30" value="" style="rounded=0;whiteSpace=wrap;html=1;fillColor=#fff2cc;strokeColor=#d6b656;gradientColor=none;fillStyle=auto;strokeWidth=2;opacity=60;" parent="1" vertex="1">
          <mxGeometry x="94" y="165" width="626" height="420" as="geometry" />
        </mxCell>
        <mxCell id="RBjfgqF-TOj7ngBc4LGD-1" value="" style="html=1;outlineConnect=0;fillColor=#CCCCCC;strokeColor=#6881B3;gradientColor=none;gradientDirection=north;strokeWidth=2;shape=mxgraph.networks.cloud;fontColor=#ffffff;" parent="1" vertex="1">
          <mxGeometry x="369" y="70" width="90" height="50" as="geometry" />
        </mxCell>
        <mxCell id="RBjfgqF-TOj7ngBc4LGD-3" value="" style="shape=mxgraph.cisco.hubs_and_gateways.generic_gateway;sketch=0;html=1;pointerEvents=1;dashed=0;fillColor=#036897;strokeColor=#ffffff;strokeWidth=2;verticalLabelPosition=bottom;verticalAlign=top;align=center;outlineConnect=0;" parent="1" vertex="1">
          <mxGeometry x="381" y="200" width="66" height="74" as="geometry" />
        </mxCell>
        <mxCell id="RBjfgqF-TOj7ngBc4LGD-4" value="" style="fontColor=#0066CC;verticalAlign=top;verticalLabelPosition=bottom;labelPosition=center;align=center;html=1;outlineConnect=0;fillColor=#CCCCCC;strokeColor=#6881B3;gradientColor=none;gradientDirection=north;strokeWidth=2;shape=mxgraph.networks.switch;" parent="1" vertex="1">
          <mxGeometry x="364" y="380" width="100" height="30" as="geometry" />
        </mxCell>
        <mxCell id="RBjfgqF-TOj7ngBc4LGD-5" value="" style="fontColor=#0066CC;verticalAlign=top;verticalLabelPosition=bottom;labelPosition=center;align=center;html=1;outlineConnect=0;fillColor=#CCCCCC;strokeColor=#6881B3;gradientColor=none;gradientDirection=north;strokeWidth=2;shape=mxgraph.networks.switch;" parent="1" vertex="1">
          <mxGeometry x="560" y="410" width="100" height="30" as="geometry" />
        </mxCell>
        <mxCell id="RBjfgqF-TOj7ngBc4LGD-6" value="" style="fontColor=#0066CC;verticalAlign=top;verticalLabelPosition=bottom;labelPosition=center;align=center;html=1;outlineConnect=0;fillColor=#CCCCCC;strokeColor=#6881B3;gradientColor=none;gradientDirection=north;strokeWidth=2;shape=mxgraph.networks.switch;" parent="1" vertex="1">
          <mxGeometry x="170" y="410" width="100" height="30" as="geometry" />
        </mxCell>
        <mxCell id="RBjfgqF-TOj7ngBc4LGD-7" value="" style="shape=link;html=1;rounded=0;entryX=0.5;entryY=1;entryDx=0;entryDy=0;entryPerimeter=0;" parent="1" source="RBjfgqF-TOj7ngBc4LGD-4" target="RBjfgqF-TOj7ngBc4LGD-3" edge="1">
          <mxGeometry width="100" relative="1" as="geometry">
            <mxPoint x="360" y="470" as="sourcePoint" />
            <mxPoint x="460" y="470" as="targetPoint" />
          </mxGeometry>
        </mxCell>
        <mxCell id="RBjfgqF-TOj7ngBc4LGD-8" value="" style="shape=link;html=1;rounded=0;entryX=0;entryY=0.5;entryDx=0;entryDy=0;entryPerimeter=0;exitX=0.5;exitY=0;exitDx=0;exitDy=0;exitPerimeter=0;edgeStyle=orthogonalEdgeStyle;" parent="1" source="RBjfgqF-TOj7ngBc4LGD-6" target="RBjfgqF-TOj7ngBc4LGD-4" edge="1">
          <mxGeometry width="100" relative="1" as="geometry">
            <mxPoint x="360" y="470" as="sourcePoint" />
            <mxPoint x="460" y="470" as="targetPoint" />
          </mxGeometry>
        </mxCell>
        <mxCell id="RBjfgqF-TOj7ngBc4LGD-10" value="" style="shape=link;html=1;rounded=0;exitX=1;exitY=0.5;exitDx=0;exitDy=0;exitPerimeter=0;entryX=0.5;entryY=0;entryDx=0;entryDy=0;entryPerimeter=0;edgeStyle=orthogonalEdgeStyle;" parent="1" source="RBjfgqF-TOj7ngBc4LGD-4" target="RBjfgqF-TOj7ngBc4LGD-5" edge="1">
          <mxGeometry width="100" relative="1" as="geometry">
            <mxPoint x="500" y="380" as="sourcePoint" />
            <mxPoint x="600" y="380" as="targetPoint" />
          </mxGeometry>
        </mxCell>
        <mxCell id="RBjfgqF-TOj7ngBc4LGD-11" value="" style="fontColor=#0066CC;verticalAlign=top;verticalLabelPosition=bottom;labelPosition=center;align=center;html=1;outlineConnect=0;fillColor=#CCCCCC;strokeColor=#6881B3;gradientColor=none;gradientDirection=north;strokeWidth=2;shape=mxgraph.networks.firewall;" parent="1" vertex="1">
          <mxGeometry x="386" y="560" width="56" height="40" as="geometry" />
        </mxCell>
        <mxCell id="RBjfgqF-TOj7ngBc4LGD-12" value="" style="fontColor=#0066CC;verticalAlign=top;verticalLabelPosition=bottom;labelPosition=center;align=center;html=1;outlineConnect=0;fillColor=#CCCCCC;strokeColor=#6881B3;gradientColor=none;gradientDirection=north;strokeWidth=2;shape=mxgraph.networks.pc;" parent="1" vertex="1">
          <mxGeometry x="110" y="500" width="60" height="40" as="geometry" />
        </mxCell>
        <mxCell id="RBjfgqF-TOj7ngBc4LGD-13" value="" style="fontColor=#0066CC;verticalAlign=top;verticalLabelPosition=bottom;labelPosition=center;align=center;html=1;outlineConnect=0;fillColor=#CCCCCC;strokeColor=#6881B3;gradientColor=none;gradientDirection=north;strokeWidth=2;shape=mxgraph.networks.pc;" parent="1" vertex="1">
          <mxGeometry x="190" y="500" width="60" height="40" as="geometry" />
        </mxCell>
        <mxCell id="RBjfgqF-TOj7ngBc4LGD-14" value="" style="fontColor=#0066CC;verticalAlign=top;verticalLabelPosition=bottom;labelPosition=center;align=center;html=1;outlineConnect=0;fillColor=#CCCCCC;strokeColor=#6881B3;gradientColor=none;gradientDirection=north;strokeWidth=2;shape=mxgraph.networks.pc;" parent="1" vertex="1">
          <mxGeometry x="270" y="500" width="60" height="40" as="geometry" />
        </mxCell>
        <mxCell id="RBjfgqF-TOj7ngBc4LGD-16" value="" style="shape=link;html=1;rounded=0;entryX=0.5;entryY=1;entryDx=0;entryDy=0;entryPerimeter=0;exitX=0.5;exitY=0.07;exitDx=0;exitDy=0;exitPerimeter=0;" parent="1" source="RBjfgqF-TOj7ngBc4LGD-13" target="RBjfgqF-TOj7ngBc4LGD-6" edge="1">
          <mxGeometry width="100" relative="1" as="geometry">
            <mxPoint x="360" y="470" as="sourcePoint" />
            <mxPoint x="460" y="470" as="targetPoint" />
          </mxGeometry>
        </mxCell>
        <mxCell id="RBjfgqF-TOj7ngBc4LGD-18" value="" style="shape=link;html=1;rounded=0;exitX=0.5;exitY=0.07;exitDx=0;exitDy=0;exitPerimeter=0;edgeStyle=orthogonalEdgeStyle;entryX=0.5;entryY=0.07;entryDx=0;entryDy=0;entryPerimeter=0;" parent="1" target="RBjfgqF-TOj7ngBc4LGD-12" edge="1">
          <mxGeometry width="100" relative="1" as="geometry">
            <mxPoint x="220" y="470" as="sourcePoint" />
            <mxPoint x="110" y="460" as="targetPoint" />
          </mxGeometry>
        </mxCell>
        <mxCell id="RBjfgqF-TOj7ngBc4LGD-19" value="" style="shape=link;html=1;rounded=0;edgeStyle=orthogonalEdgeStyle;" parent="1" target="RBjfgqF-TOj7ngBc4LGD-14" edge="1">
          <mxGeometry width="100" relative="1" as="geometry">
            <mxPoint x="220" y="470" as="sourcePoint" />
            <mxPoint x="380" y="470" as="targetPoint" />
          </mxGeometry>
        </mxCell>
        <mxCell id="RBjfgqF-TOj7ngBc4LGD-20" value="" style="shape=link;html=1;rounded=0;entryX=0.5;entryY=1;entryDx=0;entryDy=0;entryPerimeter=0;" parent="1" source="RBjfgqF-TOj7ngBc4LGD-3" target="RBjfgqF-TOj7ngBc4LGD-1" edge="1">
          <mxGeometry width="100" relative="1" as="geometry">
            <mxPoint x="270" y="150" as="sourcePoint" />
            <mxPoint x="370" y="150" as="targetPoint" />
          </mxGeometry>
        </mxCell>
        <mxCell id="RBjfgqF-TOj7ngBc4LGD-21" value="" style="fontColor=#0066CC;verticalAlign=top;verticalLabelPosition=bottom;labelPosition=center;align=center;html=1;outlineConnect=0;fillColor=#CCCCCC;strokeColor=#6881B3;gradientColor=none;gradientDirection=north;strokeWidth=2;shape=mxgraph.networks.server;" parent="1" vertex="1">
          <mxGeometry x="519" y="495" width="41" height="50" as="geometry" />
        </mxCell>
        <mxCell id="RBjfgqF-TOj7ngBc4LGD-22" value="" style="fontColor=#0066CC;verticalAlign=top;verticalLabelPosition=bottom;labelPosition=center;align=center;html=1;outlineConnect=0;fillColor=#CCCCCC;strokeColor=#6881B3;gradientColor=none;gradientDirection=north;strokeWidth=2;shape=mxgraph.networks.server;" parent="1" vertex="1">
          <mxGeometry x="660" y="495" width="41" height="50" as="geometry" />
        </mxCell>
        <mxCell id="RBjfgqF-TOj7ngBc4LGD-23" value="" style="fontColor=#0066CC;verticalAlign=top;verticalLabelPosition=bottom;labelPosition=center;align=center;html=1;outlineConnect=0;fillColor=#CCCCCC;strokeColor=#6881B3;gradientColor=none;gradientDirection=north;strokeWidth=2;shape=mxgraph.networks.server;" parent="1" vertex="1">
          <mxGeometry x="589.5" y="495" width="41" height="50" as="geometry" />
        </mxCell>
        <mxCell id="RBjfgqF-TOj7ngBc4LGD-24" value="" style="fontColor=#0066CC;verticalAlign=top;verticalLabelPosition=bottom;labelPosition=center;align=center;html=1;outlineConnect=0;fillColor=#CCCCCC;strokeColor=#6881B3;gradientColor=none;gradientDirection=north;strokeWidth=2;shape=mxgraph.networks.server;" parent="1" vertex="1">
          <mxGeometry x="660" y="280" width="41" height="50" as="geometry" />
        </mxCell>
        <mxCell id="RBjfgqF-TOj7ngBc4LGD-25" value="" style="shape=link;html=1;rounded=0;exitX=0.5;exitY=1;exitDx=0;exitDy=0;exitPerimeter=0;entryX=1;entryY=0.5;entryDx=0;entryDy=0;entryPerimeter=0;edgeStyle=orthogonalEdgeStyle;" parent="1" source="RBjfgqF-TOj7ngBc4LGD-24" target="RBjfgqF-TOj7ngBc4LGD-5" edge="1">
          <mxGeometry width="100" relative="1" as="geometry">
            <mxPoint x="610" y="670" as="sourcePoint" />
            <mxPoint x="710" y="670" as="targetPoint" />
          </mxGeometry>
        </mxCell>
        <mxCell id="RBjfgqF-TOj7ngBc4LGD-26" value="" style="shape=link;html=1;rounded=0;exitX=0.5;exitY=1;exitDx=0;exitDy=0;exitPerimeter=0;entryX=0.5;entryY=0;entryDx=0;entryDy=0;entryPerimeter=0;" parent="1" source="RBjfgqF-TOj7ngBc4LGD-5" target="RBjfgqF-TOj7ngBc4LGD-23" edge="1">
          <mxGeometry width="100" relative="1" as="geometry">
            <mxPoint x="510" y="660" as="sourcePoint" />
            <mxPoint x="610" y="490" as="targetPoint" />
          </mxGeometry>
        </mxCell>
        <mxCell id="RBjfgqF-TOj7ngBc4LGD-27" value="" style="shape=link;html=1;rounded=0;exitX=0.5;exitY=0;exitDx=0;exitDy=0;exitPerimeter=0;edgeStyle=orthogonalEdgeStyle;" parent="1" source="RBjfgqF-TOj7ngBc4LGD-21" edge="1">
          <mxGeometry width="100" relative="1" as="geometry">
            <mxPoint x="520" y="620" as="sourcePoint" />
            <mxPoint x="610" y="470" as="targetPoint" />
            <Array as="points">
              <mxPoint x="540" y="470" />
            </Array>
          </mxGeometry>
        </mxCell>
        <mxCell id="RBjfgqF-TOj7ngBc4LGD-28" value="" style="shape=link;html=1;rounded=0;entryX=0.5;entryY=0;entryDx=0;entryDy=0;entryPerimeter=0;edgeStyle=orthogonalEdgeStyle;" parent="1" target="RBjfgqF-TOj7ngBc4LGD-22" edge="1">
          <mxGeometry width="100" relative="1" as="geometry">
            <mxPoint x="610" y="470" as="sourcePoint" />
            <mxPoint x="790" y="560" as="targetPoint" />
          </mxGeometry>
        </mxCell>
        <mxCell id="RBjfgqF-TOj7ngBc4LGD-29" value="" style="shape=link;html=1;rounded=0;exitX=0.5;exitY=1;exitDx=0;exitDy=0;exitPerimeter=0;entryX=0.5;entryY=0;entryDx=0;entryDy=0;entryPerimeter=0;" parent="1" source="RBjfgqF-TOj7ngBc4LGD-4" target="RBjfgqF-TOj7ngBc4LGD-11" edge="1">
          <mxGeometry width="100" relative="1" as="geometry">
            <mxPoint x="450" y="660" as="sourcePoint" />
            <mxPoint x="550" y="660" as="targetPoint" />
          </mxGeometry>
        </mxCell>
        <mxCell id="RBjfgqF-TOj7ngBc4LGD-33" value="" style="fontColor=#0066CC;verticalAlign=top;verticalLabelPosition=bottom;labelPosition=center;align=center;html=1;outlineConnect=0;fillColor=#CCCCCC;strokeColor=#6881B3;gradientColor=none;gradientDirection=north;strokeWidth=2;shape=mxgraph.networks.switch;" parent="1" vertex="1">
          <mxGeometry x="364" y="670" width="100" height="30" as="geometry" />
        </mxCell>
        <mxCell id="RBjfgqF-TOj7ngBc4LGD-34" value="" style="shape=link;html=1;rounded=0;exitX=0.5;exitY=1;exitDx=0;exitDy=0;exitPerimeter=0;entryX=0.5;entryY=0;entryDx=0;entryDy=0;entryPerimeter=0;" parent="1" source="RBjfgqF-TOj7ngBc4LGD-11" target="RBjfgqF-TOj7ngBc4LGD-33" edge="1">
          <mxGeometry width="100" relative="1" as="geometry">
            <mxPoint x="320" y="660" as="sourcePoint" />
            <mxPoint x="414" y="660" as="targetPoint" />
          </mxGeometry>
        </mxCell>
        <mxCell id="RBjfgqF-TOj7ngBc4LGD-35" value="" style="fontColor=#0066CC;verticalAlign=top;verticalLabelPosition=bottom;labelPosition=center;align=center;html=1;outlineConnect=0;fillColor=#CCCCCC;strokeColor=#6881B3;gradientColor=none;gradientDirection=north;strokeWidth=2;shape=mxgraph.networks.switch;" parent="1" vertex="1">
          <mxGeometry x="364" y="1090" width="100" height="30" as="geometry" />
        </mxCell>
        <mxCell id="RBjfgqF-TOj7ngBc4LGD-36" value="" style="fontColor=#0066CC;verticalAlign=top;verticalLabelPosition=bottom;labelPosition=center;align=center;html=1;outlineConnect=0;fillColor=#CCCCCC;strokeColor=#6881B3;gradientColor=none;gradientDirection=north;strokeWidth=2;shape=mxgraph.networks.switch;" parent="1" vertex="1">
          <mxGeometry x="164" y="770" width="100" height="30" as="geometry" />
        </mxCell>
        <mxCell id="RBjfgqF-TOj7ngBc4LGD-37" value="" style="shape=link;html=1;rounded=0;entryX=0.5;entryY=1;entryDx=0;entryDy=0;entryPerimeter=0;exitX=0.5;exitY=0;exitDx=0;exitDy=0;exitPerimeter=0;edgeStyle=orthogonalEdgeStyle;" parent="1" source="RBjfgqF-TOj7ngBc4LGD-36" target="RBjfgqF-TOj7ngBc4LGD-33" edge="1">
          <mxGeometry width="100" relative="1" as="geometry">
            <mxPoint x="360" y="810" as="sourcePoint" />
            <mxPoint x="460" y="810" as="targetPoint" />
          </mxGeometry>
        </mxCell>
        <mxCell id="RBjfgqF-TOj7ngBc4LGD-38" value="" style="fontColor=#0066CC;verticalAlign=top;verticalLabelPosition=bottom;labelPosition=center;align=center;html=1;outlineConnect=0;fillColor=#CCCCCC;strokeColor=#6881B3;gradientColor=none;gradientDirection=north;strokeWidth=2;shape=mxgraph.networks.desktop_pc;" parent="1" vertex="1">
          <mxGeometry x="98" y="850" width="30" height="60" as="geometry" />
        </mxCell>
        <mxCell id="RBjfgqF-TOj7ngBc4LGD-39" value="" style="shape=link;html=1;rounded=0;exitX=0.5;exitY=0;exitDx=0;exitDy=0;exitPerimeter=0;entryX=0.5;entryY=1;entryDx=0;entryDy=0;entryPerimeter=0;edgeStyle=orthogonalEdgeStyle;" parent="1" source="RBjfgqF-TOj7ngBc4LGD-38" target="RBjfgqF-TOj7ngBc4LGD-36" edge="1">
          <mxGeometry width="100" relative="1" as="geometry">
            <mxPoint x="394" y="810" as="sourcePoint" />
            <mxPoint x="494" y="810" as="targetPoint" />
          </mxGeometry>
        </mxCell>
        <mxCell id="RBjfgqF-TOj7ngBc4LGD-41" value="" style="fontColor=#0066CC;verticalAlign=top;verticalLabelPosition=bottom;labelPosition=center;align=center;html=1;outlineConnect=0;fillColor=#CCCCCC;strokeColor=#6881B3;gradientColor=none;gradientDirection=north;strokeWidth=2;shape=mxgraph.networks.virtual_server;rotation=90;" parent="1" vertex="1">
          <mxGeometry x="149" y="850" width="50" height="40" as="geometry" />
        </mxCell>
        <mxCell id="RBjfgqF-TOj7ngBc4LGD-43" value="" style="fontColor=#0066CC;verticalAlign=top;verticalLabelPosition=bottom;labelPosition=center;align=center;html=1;outlineConnect=0;fillColor=#CCCCCC;strokeColor=#6881B3;gradientColor=none;gradientDirection=north;strokeWidth=2;shape=mxgraph.networks.virtual_server;rotation=90;" parent="1" vertex="1">
          <mxGeometry x="224" y="850" width="50" height="40" as="geometry" />
        </mxCell>
        <mxCell id="RBjfgqF-TOj7ngBc4LGD-44" value="" style="fontColor=#0066CC;verticalAlign=top;verticalLabelPosition=bottom;labelPosition=center;align=center;html=1;outlineConnect=0;fillColor=#CCCCCC;strokeColor=#6881B3;gradientColor=none;gradientDirection=north;strokeWidth=2;shape=mxgraph.networks.virtual_server;rotation=90;" parent="1" vertex="1">
          <mxGeometry x="294" y="850" width="50" height="40" as="geometry" />
        </mxCell>
        <mxCell id="RBjfgqF-TOj7ngBc4LGD-47" value="" style="shape=link;html=1;rounded=0;exitX=0;exitY=0.5;exitDx=0;exitDy=0;exitPerimeter=0;" parent="1" edge="1">
          <mxGeometry width="100" relative="1" as="geometry">
            <mxPoint x="174" y="843" as="sourcePoint" />
            <mxPoint x="174" y="828" as="targetPoint" />
          </mxGeometry>
        </mxCell>
        <mxCell id="RBjfgqF-TOj7ngBc4LGD-48" value="" style="shape=link;html=1;rounded=0;entryX=0;entryY=0.5;entryDx=0;entryDy=0;entryPerimeter=0;edgeStyle=orthogonalEdgeStyle;" parent="1" edge="1">
          <mxGeometry width="100" relative="1" as="geometry">
            <mxPoint x="214" y="824" as="sourcePoint" />
            <mxPoint x="249" y="849" as="targetPoint" />
            <Array as="points">
              <mxPoint x="214" y="825" />
              <mxPoint x="249" y="825" />
            </Array>
          </mxGeometry>
        </mxCell>
        <mxCell id="RBjfgqF-TOj7ngBc4LGD-49" value="" style="shape=link;html=1;rounded=0;entryX=0;entryY=0.5;entryDx=0;entryDy=0;entryPerimeter=0;edgeStyle=orthogonalEdgeStyle;" parent="1" edge="1">
          <mxGeometry width="100" relative="1" as="geometry">
            <mxPoint x="244" y="825" as="sourcePoint" />
            <mxPoint x="319" y="840" as="targetPoint" />
          </mxGeometry>
        </mxCell>
        <mxCell id="RBjfgqF-TOj7ngBc4LGD-55" value="" style="shape=link;html=1;rounded=0;exitX=0.5;exitY=0;exitDx=0;exitDy=0;exitPerimeter=0;entryX=0.5;entryY=1;entryDx=0;entryDy=0;entryPerimeter=0;edgeStyle=orthogonalEdgeStyle;" parent="1" target="RBjfgqF-TOj7ngBc4LGD-54" edge="1">
          <mxGeometry width="100" relative="1" as="geometry">
            <mxPoint x="216" y="1040" as="sourcePoint" />
            <mxPoint x="597" y="1000" as="targetPoint" />
          </mxGeometry>
        </mxCell>
        <mxCell id="RBjfgqF-TOj7ngBc4LGD-56" value="" style="fontColor=#0066CC;verticalAlign=top;verticalLabelPosition=bottom;labelPosition=center;align=center;html=1;outlineConnect=0;fillColor=#CCCCCC;strokeColor=#6881B3;gradientColor=none;gradientDirection=north;strokeWidth=2;shape=mxgraph.networks.virtual_server;rotation=90;" parent="1" vertex="1">
          <mxGeometry x="252" y="1040" width="50" height="40" as="geometry" />
        </mxCell>
        <mxCell id="RBjfgqF-TOj7ngBc4LGD-57" value="" style="fontColor=#0066CC;verticalAlign=top;verticalLabelPosition=bottom;labelPosition=center;align=center;html=1;outlineConnect=0;fillColor=#CCCCCC;strokeColor=#6881B3;gradientColor=none;gradientDirection=north;strokeWidth=2;shape=mxgraph.networks.virtual_server;rotation=90;" parent="1" vertex="1">
          <mxGeometry x="327" y="1040" width="50" height="40" as="geometry" />
        </mxCell>
        <mxCell id="RBjfgqF-TOj7ngBc4LGD-58" value="" style="fontColor=#0066CC;verticalAlign=top;verticalLabelPosition=bottom;labelPosition=center;align=center;html=1;outlineConnect=0;fillColor=#CCCCCC;strokeColor=#6881B3;gradientColor=none;gradientDirection=north;strokeWidth=2;shape=mxgraph.networks.virtual_server;rotation=90;" parent="1" vertex="1">
          <mxGeometry x="397" y="1040" width="50" height="40" as="geometry" />
        </mxCell>
        <mxCell id="RBjfgqF-TOj7ngBc4LGD-59" value="" style="shape=link;html=1;rounded=0;exitX=0;exitY=0.5;exitDx=0;exitDy=0;exitPerimeter=0;" parent="1" edge="1">
          <mxGeometry width="100" relative="1" as="geometry">
            <mxPoint x="277" y="1033" as="sourcePoint" />
            <mxPoint x="277" y="1018" as="targetPoint" />
          </mxGeometry>
        </mxCell>
        <mxCell id="RBjfgqF-TOj7ngBc4LGD-60" value="" style="shape=link;html=1;rounded=0;entryX=0;entryY=0.5;entryDx=0;entryDy=0;entryPerimeter=0;edgeStyle=orthogonalEdgeStyle;" parent="1" edge="1">
          <mxGeometry width="100" relative="1" as="geometry">
            <mxPoint x="317" y="1014" as="sourcePoint" />
            <mxPoint x="352" y="1039" as="targetPoint" />
            <Array as="points">
              <mxPoint x="317" y="1015" />
              <mxPoint x="352" y="1015" />
            </Array>
          </mxGeometry>
        </mxCell>
        <mxCell id="RBjfgqF-TOj7ngBc4LGD-61" value="" style="shape=link;html=1;rounded=0;entryX=0;entryY=0.5;entryDx=0;entryDy=0;entryPerimeter=0;edgeStyle=orthogonalEdgeStyle;" parent="1" edge="1">
          <mxGeometry width="100" relative="1" as="geometry">
            <mxPoint x="347" y="1015" as="sourcePoint" />
            <mxPoint x="422" y="1030" as="targetPoint" />
          </mxGeometry>
        </mxCell>
        <mxCell id="RBjfgqF-TOj7ngBc4LGD-54" value="" style="fontColor=#0066CC;verticalAlign=top;verticalLabelPosition=bottom;labelPosition=center;align=center;html=1;outlineConnect=0;fillColor=#CCCCCC;strokeColor=#6881B3;gradientColor=none;gradientDirection=north;strokeWidth=2;shape=mxgraph.networks.switch;" parent="1" vertex="1">
          <mxGeometry x="269" y="930" width="100" height="30" as="geometry" />
        </mxCell>
      </root>
    </mxGraphModel>
  </diagram>
</mxfile>
